<svg xmlns="http://www.w3.org/2000/svg" viewBox="0 0 360 96" role="img" aria-labelledby="title desc">
<title id="title">NegoShow logo</title><desc id="desc">A green market basket with vegetables beside the NegoShow wordmark.</desc>
<g transform="translate(6 8)">
  <path d="M14 30h64l-7 46H21z" fill="#154212"/>
  <path d="M26 31c1-14 10-22 20-22s19 8 20 22" fill="none" stroke="#154212" stroke-width="7" stroke-linecap="round"/>
  <path d="M29 39h34l-4 29H33z" fill="#2f6a32" opacity=".82"/>
  <ellipse cx="39" cy="28" rx="12" ry="15" fill="#d98324"/>
  <path d="M39 13c-4-7-1-12 3-15 1 7 5 10 9 12-4 4-7 5-12 3z" fill="#72a34f"/>
  <ellipse cx="58" cy="30" rx="11" ry="14" fill="#f0b44b"/>
  <path d="M58 16c1-8 7-11 13-12-2 6-1 10 2 14-5 1-10 1-15-2z" fill="#5d9147"/>
  <path d="M23 40h47" stroke="#f6f3ec" stroke-width="3" opacity=".85"/>
</g>
<text x="100" y="58" font-family="Inter, Arial, sans-serif" font-size="43" font-weight="800" fill="#153b22">NegoShow</text>
<text x="102" y="79" font-family="Inter, Arial, sans-serif" font-size="13" font-weight="600" letter-spacing="2" fill="#6f786d">TALIPAPA UTILITY</text>
</svg>